# xmcd
#
# Track frame offsets: 
#        150
#        9762
#        25213
#        38457
#        51968
#        65469
#        81896
#        94532
#        107455
#        118124
#        127508
#        145711
#        157747
#        168664
#        178241
#        191914
#
# Disc length: 2773 seconds
#
# Revision: 1
# Processed by: cddbd v1.5.2PL0 Copyright (c) Steve Scherf et al.
# Submitted via: ExactAudioCopyFreeDBPlugin 1.0
#
DISCID=bf0ad310
DTITLE=Freddy Fender - Tex Mex ' Loving Cajun Style
DYEAR=1999
DGENRE=Tex Mex
TTITLE0=Loving Cajun Style
TTITLE1=Cielito Lindo
TTITLE2=I can't stop loving you
TTITLE3=Mexican Rose
TTITLE4=Wild side of life
TTITLE5=Mentiras
TTITLE6=Next time you see me
TTITLE7=No me quieres ver
TTITLE8=Aungue me hagas Llorar
TTITLE9=No me culpes
TTITLE10=El hombre no Llora
TTITLE11=Freddy Fender and Isidro Lopez - Your cheating heart
TTITLE12=Freddy Fender and Isidro Lopez - Honky tonk blues
TTITLE13=Freddy Fender and Isidro Lopez - Hey good looking
TTITLE14=Freddy Fender and Isidro Lopez - Kaw-Liga
TTITLE15=Freddy Fender and Isidro Lopez - I'm so lonesome I could cry
EXTD=
EXTT0=
EXTT1=
EXTT2=
EXTT3=
EXTT4=
EXTT5=
EXTT6=
EXTT7=
EXTT8=
EXTT9=
EXTT10=
EXTT11=
EXTT12=
EXTT13=
EXTT14=
EXTT15=
PLAYORDER=
